<?xml version="1.0" encoding="UTF-8" standalone="no"?>
<!DOCTYPE svg PUBLIC "-//W3C//DTD SVG 1.1//EN"
 "http://www.w3.org/Graphics/SVG/1.1/DTD/svg11.dtd">
<!-- Generated by graphviz version 12.2.1 (20241206.2353)
 -->
<!-- Pages: 1 -->
<svg width="806pt" height="260pt"
 viewBox="0.00 0.00 805.57 260.00" xmlns="http://www.w3.org/2000/svg" xmlns:xlink="http://www.w3.org/1999/xlink">
<g id="graph0" class="graph" transform="scale(1 1) rotate(0) translate(4 256)">
<polygon fill="white" stroke="none" points="-4,4 -4,-256 801.57,-256 801.57,4 -4,4"/>
<!-- [root] @repo/eslint&#45;config#build -->
<g id="node1" class="node">
<title>[root] @repo/eslint&#45;config#build</title>
<ellipse fill="none" stroke="black" cx="447.59" cy="-90" rx="132.22" ry="18"/>
<text text-anchor="middle" x="447.59" y="-84.95" font-family="Times,serif" font-size="14.00">[root] @repo/eslint&#45;config#build</text>
</g>
<!-- [root] ___ROOT___ -->
<g id="node2" class="node">
<title>[root] ___ROOT___</title>
<ellipse fill="none" stroke="black" cx="447.59" cy="-18" rx="87.18" ry="18"/>
<text text-anchor="middle" x="447.59" y="-12.95" font-family="Times,serif" font-size="14.00">[root] ___ROOT___</text>
</g>
<!-- [root] @repo/eslint&#45;config#build&#45;&gt;[root] ___ROOT___ -->
<g id="edge1" class="edge">
<title>[root] @repo/eslint&#45;config#build&#45;&gt;[root] ___ROOT___</title>
<path fill="none" stroke="black" d="M447.59,-71.7C447.59,-64.41 447.59,-55.73 447.59,-47.54"/>
<polygon fill="black" stroke="black" points="451.1,-47.62 447.59,-37.62 444.1,-47.62 451.1,-47.62"/>
</g>
<!-- [root] @repo/typescript&#45;config#build -->
<g id="node3" class="node">
<title>[root] @repo/typescript&#45;config#build</title>
<ellipse fill="none" stroke="black" cx="148.59" cy="-90" rx="148.59" ry="18"/>
<text text-anchor="middle" x="148.59" y="-84.95" font-family="Times,serif" font-size="14.00">[root] @repo/typescript&#45;config#build</text>
</g>
<!-- [root] @repo/typescript&#45;config#build&#45;&gt;[root] ___ROOT___ -->
<g id="edge2" class="edge">
<title>[root] @repo/typescript&#45;config#build&#45;&gt;[root] ___ROOT___</title>
<path fill="none" stroke="black" d="M214.95,-73.46C264.11,-61.96 330.86,-46.33 380.26,-34.77"/>
<polygon fill="black" stroke="black" points="381.05,-38.17 389.99,-32.49 379.46,-31.36 381.05,-38.17"/>
</g>
<!-- [root] @repo/zod&#45;schemas#build -->
<g id="node4" class="node">
<title>[root] @repo/zod&#45;schemas#build</title>
<ellipse fill="none" stroke="black" cx="502.59" cy="-162" rx="133.75" ry="18"/>
<text text-anchor="middle" x="502.59" y="-156.95" font-family="Times,serif" font-size="14.00">[root] @repo/zod&#45;schemas#build</text>
</g>
<!-- [root] @repo/zod&#45;schemas#build&#45;&gt;[root] @repo/eslint&#45;config#build -->
<g id="edge3" class="edge">
<title>[root] @repo/zod&#45;schemas#build&#45;&gt;[root] @repo/eslint&#45;config#build</title>
<path fill="none" stroke="black" d="M489,-143.7C482.67,-135.64 475.01,-125.89 468.01,-116.98"/>
<polygon fill="black" stroke="black" points="470.9,-115 461.97,-109.29 465.4,-119.32 470.9,-115"/>
</g>
<!-- [root] @repo/zod&#45;schemas#build&#45;&gt;[root] @repo/typescript&#45;config#build -->
<g id="edge4" class="edge">
<title>[root] @repo/zod&#45;schemas#build&#45;&gt;[root] @repo/typescript&#45;config#build</title>
<path fill="none" stroke="black" d="M429.68,-146.58C373.3,-135.43 295.07,-119.96 235.45,-108.18"/>
<polygon fill="black" stroke="black" points="236.14,-104.74 225.65,-106.24 234.78,-111.61 236.14,-104.74"/>
</g>
<!-- [root] deno&#45;app&#45;1#build -->
<g id="node5" class="node">
<title>[root] deno&#45;app&#45;1#build</title>
<ellipse fill="none" stroke="black" cx="527.59" cy="-234" rx="99.97" ry="18"/>
<text text-anchor="middle" x="527.59" y="-228.95" font-family="Times,serif" font-size="14.00">[root] deno&#45;app&#45;1#build</text>
</g>
<!-- [root] deno&#45;app&#45;1#build&#45;&gt;[root] @repo/zod&#45;schemas#build -->
<g id="edge5" class="edge">
<title>[root] deno&#45;app&#45;1#build&#45;&gt;[root] @repo/zod&#45;schemas#build</title>
<path fill="none" stroke="black" d="M521.42,-215.7C518.72,-208.15 515.49,-199.12 512.48,-190.68"/>
<polygon fill="black" stroke="black" points="515.87,-189.77 509.21,-181.53 509.28,-192.12 515.87,-189.77"/>
</g>
<!-- [root] deno&#45;app&#45;2#build -->
<g id="node6" class="node">
<title>[root] deno&#45;app&#45;2#build</title>
<ellipse fill="none" stroke="black" cx="697.59" cy="-90" rx="99.97" ry="18"/>
<text text-anchor="middle" x="697.59" y="-84.95" font-family="Times,serif" font-size="14.00">[root] deno&#45;app&#45;2#build</text>
</g>
<!-- [root] deno&#45;app&#45;2#build&#45;&gt;[root] ___ROOT___ -->
<g id="edge6" class="edge">
<title>[root] deno&#45;app&#45;2#build&#45;&gt;[root] ___ROOT___</title>
<path fill="none" stroke="black" d="M645.19,-74.33C605.36,-63.17 550.49,-47.81 508.68,-36.1"/>
<polygon fill="black" stroke="black" points="509.83,-32.79 499.26,-33.47 507.95,-39.53 509.83,-32.79"/>
</g>
<!-- [root] vue&#45;app&#45;1#build -->
<g id="node7" class="node">
<title>[root] vue&#45;app&#45;1#build</title>
<ellipse fill="none" stroke="black" cx="314.59" cy="-234" rx="95.37" ry="18"/>
<text text-anchor="middle" x="314.59" y="-228.95" font-family="Times,serif" font-size="14.00">[root] vue&#45;app&#45;1#build</text>
</g>
<!-- [root] vue&#45;app&#45;1#build&#45;&gt;[root] @repo/eslint&#45;config#build -->
<g id="edge7" class="edge">
<title>[root] vue&#45;app&#45;1#build&#45;&gt;[root] @repo/eslint&#45;config#build</title>
<path fill="none" stroke="black" d="M320.12,-215.54C326.92,-196.23 340.04,-165.06 359.59,-144 371.03,-131.68 385.98,-121.25 400.3,-112.99"/>
<polygon fill="black" stroke="black" points="401.66,-116.23 408.73,-108.34 398.28,-110.1 401.66,-116.23"/>
</g>
<!-- [root] vue&#45;app&#45;1#build&#45;&gt;[root] @repo/typescript&#45;config#build -->
<g id="edge8" class="edge">
<title>[root] vue&#45;app&#45;1#build&#45;&gt;[root] @repo/typescript&#45;config#build</title>
<path fill="none" stroke="black" d="M238.75,-222.72C188.52,-214.19 129.12,-200.15 113.59,-180 99.2,-161.32 111.55,-135.98 125.4,-117.11"/>
<polygon fill="black" stroke="black" points="128.06,-119.39 131.49,-109.36 122.56,-115.06 128.06,-119.39"/>
</g>
<!-- [root] vue&#45;app&#45;1#build&#45;&gt;[root] @repo/zod&#45;schemas#build -->
<g id="edge9" class="edge">
<title>[root] vue&#45;app&#45;1#build&#45;&gt;[root] @repo/zod&#45;schemas#build</title>
<path fill="none" stroke="black" d="M356.32,-217.46C383.29,-207.42 418.69,-194.24 447.91,-183.36"/>
<polygon fill="black" stroke="black" points="448.8,-186.76 456.95,-180 446.36,-180.2 448.8,-186.76"/>
</g>
<!-- [root] vue&#45;app&#45;2#build -->
<g id="node8" class="node">
<title>[root] vue&#45;app&#45;2#build</title>
<ellipse fill="none" stroke="black" cx="217.59" cy="-162" rx="95.37" ry="18"/>
<text text-anchor="middle" x="217.59" y="-156.95" font-family="Times,serif" font-size="14.00">[root] vue&#45;app&#45;2#build</text>
</g>
<!-- [root] vue&#45;app&#45;2#build&#45;&gt;[root] @repo/eslint&#45;config#build -->
<g id="edge10" class="edge">
<title>[root] vue&#45;app&#45;2#build&#45;&gt;[root] @repo/eslint&#45;config#build</title>
<path fill="none" stroke="black" d="M266.37,-146.15C300.82,-135.67 347.29,-121.53 384.54,-110.19"/>
<polygon fill="black" stroke="black" points="385.29,-113.62 393.84,-107.36 383.25,-106.92 385.29,-113.62"/>
</g>
<!-- [root] vue&#45;app&#45;2#build&#45;&gt;[root] @repo/typescript&#45;config#build -->
<g id="edge11" class="edge">
<title>[root] vue&#45;app&#45;2#build&#45;&gt;[root] @repo/typescript&#45;config#build</title>
<path fill="none" stroke="black" d="M200.89,-144.05C192.71,-135.75 182.68,-125.58 173.61,-116.38"/>
<polygon fill="black" stroke="black" points="176.2,-114.02 166.69,-109.35 171.21,-118.93 176.2,-114.02"/>
</g>
</g>
</svg>
